<?xml version="1.0" encoding="utf-8"?><svg viewBox="0 0 2048 1536" xmlns="http://www.w3.org/2000/svg" xmlns:xlink="http://www.w3.org/1999/xlink"><view id="angle-left" viewBox="2025 1024 18 18"/><svg version="1.1" id="aaСлой_1" x="2025" y="1024" viewBox="0 0 18 18" xml:space="preserve" width="18" height="18" xmlns="http://www.w3.org/2000/svg"><style>.st0{fill:#0a0a0a}</style><path d="m6.4 9.5 4 4 .2.2c.1 0 .2.1.3.1s.2 0 .3-.1c.1 0 .2-.1.2-.2.1-.1.2-.3.2-.5s-.1-.4-.2-.5L7.9 9l3.5-3.5c.1-.1.2-.3.2-.5s-.1-.4-.2-.5l-.2-.2c-.1 0-.2-.1-.3-.1-.1 0-.2 0-.3.1-.1 0-.2.1-.2.2l-4 4-.2.2c0 .1-.1.2-.1.3 0 .1 0 .2.1.3.1.1.1.2.2.2z"/></svg><view id="angle-right" viewBox="1920 1060 18 18"/><svg width="18" height="18" viewBox="0 0 18 18" x="1920" y="1060" xmlns="http://www.w3.org/2000/svg"><path d="m11.395 8.497-4.01-4.002a.708.708 0 1 0-1.005.999l3.506 3.542-3.506 3.506a.709.709 0 0 0 .23 1.155.708.708 0 0 0 .545 0 .707.707 0 0 0 .23-.156l4.01-4.002a.708.708 0 0 0 0-1.042Z"/></svg><view id="arrow-down" viewBox="0 0 512 512"/><svg viewBox="0 0 512 512" xml:space="preserve" width="512" height="512" xmlns="http://www.w3.org/2000/svg"><path d="m189 384.4 58.3 101c3.1 4.8 9.5 6.1 14.3 3 1.2-.8 2.2-1.8 3-3l58.3-101c2.7-4.9.8-11-4.1-13.7-3.2-1.8-7.2-1.6-10.3.4L266 400.4v-368c0-5.5-4.5-10-10-10s-10 4.5-10 10v368l-42.6-29.3c-4.7-3-10.9-1.7-13.9 3-2.1 3.1-2.2 7-.5 10.3z"/></svg><view id="arrow-next" viewBox="1737 1024 24 24"/><svg version="1.1" id="adСлой_1" x="1737" y="1024" viewBox="0 0 24 24" xml:space="preserve" width="24" height="24" xmlns="http://www.w3.org/2000/svg"><style>.st0{fill:#0a0a0a}</style><path d="m22.3 12.5-7.8 8.3c-.1.2-.4.2-.6.2s-.4 0-.5-.2c-.3-.3-.3-.8 0-1l6.6-7H2.3c-.4 0-.8-.3-.8-.7 0-.4.3-.8.8-.8H20l-6.6-7c-.3-.3-.3-.8 0-1 .3-.3.8-.3 1.1 0l7.8 8.2c.3.3.3.7 0 1z"/></svg><view id="arrow-prev" viewBox="1761 1024 24 24"/><svg version="1.1" id="aeСлой_1" x="1761" y="1024" viewBox="0 0 24 24" xml:space="preserve" width="24" height="24" xmlns="http://www.w3.org/2000/svg"><style>.st0{fill:#0a0a0a}</style><path d="m1.7 11.5 7.8-8.2c.1-.2.4-.3.6-.3s.4 0 .5.2c.3.3.3.8 0 1l-6.6 7h17.7c.4 0 .8.3.8.7 0 .4-.3.8-.8.8H4.1l6.6 7c.3.3.3.8 0 1-.3.3-.8.3-1.1 0l-7.8-8.2c-.4-.3-.4-.7-.1-1z"/></svg><view id="arrow-up" viewBox="512 0 512 512"/><svg width="512" height="512" viewBox="0 0 64 64" xml:space="preserve" x="512" xmlns="http://www.w3.org/2000/svg"><path d="M40.37 16 33.08 3.38a1.29 1.29 0 0 0-2.16 0L23.63 16a1.26 1.26 0 0 0 1.79 1.66L30.75 14v46a1.25 1.25 0 0 0 2.5 0V14l5.33 3.66A1.26 1.26 0 0 0 40.37 16z"/></svg><view id="bag" viewBox="1938 1060 16 16"/><svg width="16" height="16" viewBox="0 0 16 16" x="1938" y="1060" xmlns="http://www.w3.org/2000/svg"><path d="M12.667 5.167h-2V4.5a2.667 2.667 0 0 0-5.333 0v.667h-2a.667.667 0 0 0-.667.666v7.334a2 2 0 0 0 2 2h6.667a2 2 0 0 0 2-2V5.833a.667.667 0 0 0-.667-.666Zm-6-.667a1.333 1.333 0 0 1 2.667 0v.667H6.667V4.5ZM12 13.167a.667.667 0 0 1-.666.666H4.667A.667.667 0 0 1 4 13.167V6.5h1.334v.667a.667.667 0 0 0 1.333 0V6.5h2.667v.667a.667.667 0 0 0 1.333 0V6.5H12v6.667Z"/></svg><view id="box" viewBox="0 512 512 512"/><svg width="512" height="512" viewBox="0 0 511.414 511.414" xml:space="preserve" y="512" xmlns="http://www.w3.org/2000/svg"><path d="M497.695 108.838a16.002 16.002 0 0 0-9.92-14.8L261.787 1.2a16.003 16.003 0 0 0-12.16 0L23.639 94.038a16 16 0 0 0-9.92 14.8v293.738a16 16 0 0 0 9.92 14.8l225.988 92.838a15.947 15.947 0 0 0 12.14-.001c.193-.064-8.363 3.445 226.008-92.837a16 16 0 0 0 9.92-14.8zm-241.988 76.886-83.268-34.207L352.39 73.016l88.837 36.495zm-209.988-51.67 71.841 29.513v83.264c0 8.836 7.164 16 16 16s16-7.164 16-16v-70.118l90.147 37.033v257.797L45.719 391.851zM255.707 33.297l55.466 22.786-179.951 78.501-61.035-25.074zm16 180.449 193.988-79.692v257.797l-193.988 79.692z"/></svg><view id="calendar" viewBox="1954 1060 14 16"/><svg width="14" height="16" viewBox="0 0 14 16" x="1954" y="1060" xmlns="http://www.w3.org/2000/svg"><path d="M3.5 0c.25 0 .5.25.5.5V2h6V.5c0-.25.219-.5.5-.5.25 0 .5.25.5.5V2h1c1.094 0 2 .906 2 2v10c0 1.125-.906 2-2 2H2c-1.125 0-2-.875-2-2V4c0-1.094.875-2 2-2h1V.5c0-.25.219-.5.5-.5ZM13 6H1v8c0 .563.438 1 1 1h10c.531 0 1-.438 1-1V6Zm-1-3H2c-.563 0-1 .469-1 1v1h12V4c0-.531-.469-1-1-1Z"/></svg><view id="cart" viewBox="1785 1024 24 24"/><svg viewBox="0 0 24 24" width="24" height="24" x="1785" y="1024" xmlns="http://www.w3.org/2000/svg"><path d="M19 7h-3V6c0-1.06-.42-2.08-1.17-2.83a4.004 4.004 0 0 0-5.66 0C8.42 3.92 8 4.94 8 6v1H5c-.27 0-.52.11-.71.29A.99.99 0 0 0 4 8v11c0 .8.32 1.56.88 2.12S6.21 22 7 22h10c.8 0 1.56-.32 2.12-.88S20 19.79 20 19V8c0-.27-.11-.52-.29-.71A.99.99 0 0 0 19 7Zm-9-1c0-.53.21-1.04.59-1.41a1.983 1.983 0 0 1 2.82 0c.38.38.59.88.59 1.41v1h-4V6Zm8 13c0 .27-.11.52-.29.71s-.44.29-.71.29H7c-.27 0-.52-.11-.71-.29A.99.99 0 0 1 6 19V9h2v1c0 .27.11.52.29.71.19.19.44.29.71.29s.52-.11.71-.29A.99.99 0 0 0 10 10V9h4v1c0 .27.11.52.29.71s.44.29.71.29.52-.11.71-.29.29-.44.29-.71V9h2v10Z"/></svg><view id="check" viewBox="1809 1024 24 24"/><svg width="24" height="24" viewBox="0 0 24 24" x="1809" y="1024" xmlns="http://www.w3.org/2000/svg"><path fill-rule="evenodd" clip-rule="evenodd" d="M3.293 11.607a1 1 0 0 1 1.414 0l4.95 4.95L20.264 5.95a1 1 0 1 1 1.414 1.414L9.657 19.384l-6.364-6.363a1 1 0 0 1 0-1.414Z"/></svg><view id="chevron" viewBox="512 512 512 512"/><svg width="512" height="512" viewBox="0 0 512.012 512.012" xml:space="preserve" x="512" y="512" xmlns="http://www.w3.org/2000/svg"><path d="M505.325 129.52c-9.241-9.802-24.699-10.167-34.452-.951l-214.88 203.566L41.138 128.57c-9.753-9.241-25.187-8.851-34.452.951-9.265 9.777-8.851 25.211.927 34.476l231.63 219.439a24.328 24.328 0 0 0 16.75 6.681 24.39 24.39 0 0 0 16.775-6.681l231.63-219.439c9.778-9.266 10.192-24.699.927-34.477z"/></svg><view id="close" viewBox="1024 0 512 512"/><svg width="512" height="512" xml:space="preserve" viewBox="0 0 512 512" x="1024" xmlns="http://www.w3.org/2000/svg"><path d="M59.65 473.6a21.25 21.25 0 0 1-15.028-36.278l392.7-392.7a21.253 21.253 0 0 1 30.056 30.056l-392.7 392.7A21.19 21.19 0 0 1 59.65 473.6z"/><path d="M452.35 473.6a21.19 21.19 0 0 1-15.028-6.222l-392.7-392.7a21.253 21.253 0 0 1 30.056-30.056l392.7 392.7A21.25 21.25 0 0 1 452.35 473.6z"/></svg><view id="cloud-sun" viewBox="1833 1024 24 24"/><svg width="24" height="24" viewBox="0 0 24 24" x="1833" y="1024" xmlns="http://www.w3.org/2000/svg"><path d="M21 9h-.8a4.247 4.247 0 0 0-.52-1.27l.56-.56a1 1 0 0 0-1.41-1.41l-.56.56A4.25 4.25 0 0 0 17 5.8V5a1 1 0 1 0-2 0v.8a4.101 4.101 0 0 0-1.26.52l-.57-.56a1 1 0 0 0-1.41 1.41l.56.57c-.09.15-.16.32-.24.48A5.85 5.85 0 0 0 10.5 8a6 6 0 0 0-5.94 5.13A3.5 3.5 0 0 0 5.5 20h9.17A4.33 4.33 0 0 0 19 15.67c0-.531-.102-1.057-.3-1.55l.13.12a1 1 0 0 0 1.41 0 1 1 0 0 0 0-1.41l-.56-.56c.242-.392.418-.821.52-1.27h.8a1 1 0 1 0 0-2Zm-6.33 9H5.5a1.5 1.5 0 1 1 0-3 1 1 0 0 0 1-1 4 4 0 0 1 7.78-1.29 1.001 1.001 0 0 0 .78.67 2.33 2.33 0 0 1-.39 4.62Zm3-6.35c-.176.166-.378.301-.6.4a4.49 4.49 0 0 0-1.07-.51 6.12 6.12 0 0 0-2.09-2.49c.11-.257.266-.49.46-.69a2.42 2.42 0 0 1 3.29 0 2.37 2.37 0 0 1 0 3.3l.01-.01Z"/></svg><view id="dislike" viewBox="1687 1024 25 24"/><svg width="25" height="24" viewBox="0 0 25 24" x="1687" y="1024" xmlns="http://www.w3.org/2000/svg"><path d="M19.835 2H7.105a3 3 0 0 0-2.95 2.46l-1.27 7A3 3 0 0 0 5.835 15h4.56l-.56 1.43a4.13 4.13 0 0 0 3.89 5.57 1 1 0 0 0 .91-.59l2.85-6.41h2.35a3 3 0 0 0 3-3V5a3 3 0 0 0-3-3Zm-4 11.79-2.72 6.12a2.13 2.13 0 0 1-1.38-2.78l.53-1.43a2 2 0 0 0-1.87-2.7h-4.56a1 1 0 0 1-.77-.36 1 1 0 0 1-.23-.82l1.27-7a1 1 0 0 1 1-.82h8.73v9.79Zm5-1.79a1 1 0 0 1-1 1h-2V4h2a1 1 0 0 1 1 1v7Z"/></svg><view id="facebook" viewBox="1857 1024 24 24"/><svg width="24" height="24" viewBox="0 0 24 24" x="1857" y="1024" xmlns="http://www.w3.org/2000/svg"><path d="M15.12 5.32H17V2.14A26.113 26.113 0 0 0 14.26 2c-2.72 0-4.58 1.66-4.58 4.7v2.62H6.61v3.56h3.07V22h3.68v-9.12h3.06l.46-3.56h-3.52V7.05c0-1.05.28-1.73 1.76-1.73Z"/></svg><view id="filter" viewBox="1568 1085 14 14"/><svg width="14" height="14" viewBox="0 0 15 14" x="1568" y="1085" xmlns="http://www.w3.org/2000/svg"><path d="M0 2.043C0 1.369.527.813 1.201.813H13.77c.673 0 1.23.556 1.23 1.23 0 .293-.117.557-.293.762L9.844 8.81V13c0 .527-.44.938-.967.938a.895.895 0 0 1-.586-.206l-2.695-2.138a1.137 1.137 0 0 1-.44-.909V8.811L.264 2.805A1.147 1.147 0 0 1 0 2.043Zm1.582.176 4.805 5.888a.704.704 0 0 1 .176.44v2.021l1.875 1.495V8.546c0-.147.029-.293.146-.44l4.805-5.888H1.582Z"/></svg><view id="hint" viewBox="1968 1060 16 16"/><svg width="16" height="16" viewBox="0 0 16 17" x="1968" y="1060" xmlns="http://www.w3.org/2000/svg"><path d="M8 7.833a.667.667 0 0 0-.666.667v2.666a.666.666 0 1 0 1.333 0V8.5a.667.667 0 0 0-.666-.667Zm.254-2.613a.667.667 0 0 0-.507 0 .667.667 0 0 0-.22.14.767.767 0 0 0-.14.22.667.667 0 0 0 .14.727c.065.058.14.106.22.14a.667.667 0 0 0 .727-1.087.667.667 0 0 0-.22-.14Zm-.253-3.387a6.667 6.667 0 1 0 0 13.333A6.667 6.667 0 0 0 8 1.833Zm0 12A5.334 5.334 0 1 1 8 3.166a5.334 5.334 0 0 1 0 10.667Z"/></svg><view id="instagram" viewBox="1881 1024 24 24"/><svg width="24" height="24" viewBox="0 0 24 24" x="1881" y="1024" xmlns="http://www.w3.org/2000/svg"><path d="M17.34 5.46a1.2 1.2 0 1 0 0 2.4 1.2 1.2 0 0 0 0-2.4Zm4.6 2.42a7.588 7.588 0 0 0-.46-2.43 4.94 4.94 0 0 0-1.16-1.77 4.7 4.7 0 0 0-1.77-1.15 7.3 7.3 0 0 0-2.43-.47C15.06 2 14.72 2 12 2s-3.06 0-4.12.06a7.3 7.3 0 0 0-2.43.47 4.78 4.78 0 0 0-1.77 1.15 4.7 4.7 0 0 0-1.15 1.77 7.3 7.3 0 0 0-.47 2.43C2 8.94 2 9.28 2 12s0 3.06.06 4.12a7.3 7.3 0 0 0 .47 2.43 4.7 4.7 0 0 0 1.15 1.77 4.78 4.78 0 0 0 1.77 1.15 7.3 7.3 0 0 0 2.43.47C8.94 22 9.28 22 12 22s3.06 0 4.12-.06a7.3 7.3 0 0 0 2.43-.47 4.7 4.7 0 0 0 1.77-1.15 4.85 4.85 0 0 0 1.16-1.77c.285-.78.44-1.6.46-2.43 0-1.06.06-1.4.06-4.12s0-3.06-.06-4.12ZM20.14 16a5.61 5.61 0 0 1-.34 1.86 3.06 3.06 0 0 1-.75 1.15c-.324.33-.717.586-1.15.75a5.61 5.61 0 0 1-1.86.34c-1 .05-1.37.06-4 .06s-3 0-4-.06a5.73 5.73 0 0 1-1.94-.3 3.27 3.27 0 0 1-1.1-.75 3 3 0 0 1-.74-1.15 5.54 5.54 0 0 1-.4-1.9c0-1-.06-1.37-.06-4s0-3 .06-4a5.54 5.54 0 0 1 .35-1.9A3 3 0 0 1 5 5a3.14 3.14 0 0 1 1.1-.8A5.73 5.73 0 0 1 8 3.86c1 0 1.37-.06 4-.06s3 0 4 .06a5.61 5.61 0 0 1 1.86.34 3.06 3.06 0 0 1 1.19.8c.328.307.584.683.75 1.1.222.609.337 1.252.34 1.9.05 1 .06 1.37.06 4s-.01 3-.06 4ZM12 6.87A5.13 5.13 0 1 0 17.14 12 5.12 5.12 0 0 0 12 6.87Zm0 8.46a3.33 3.33 0 1 1 0-6.66 3.33 3.33 0 0 1 0 6.66Z"/></svg><view id="lang-en" viewBox="1024 512 512 512"/><svg width="512" height="512" style="enable-background:new 0 0 512 512" xml:space="preserve" viewBox="0 0 512 512" x="1024" y="512" xmlns="http://www.w3.org/2000/svg"><path d="M473.655 88.276H38.345C17.167 88.276 0 105.443 0 126.621V385.38c0 21.177 17.167 38.345 38.345 38.345h435.31c21.177 0 38.345-17.167 38.345-38.345V126.621c0-21.178-17.167-38.345-38.345-38.345z" fill="#f5f5f5" data-original="#f5f5f5"/><path d="M2.109 114.08H509.89c-5.196-15.017-19.452-25.804-36.235-25.804H38.345c-16.784 0-31.039 10.787-36.236 25.804zM0 191.49h512v25.803H0zm0-51.61h512v25.803H0zm0 120.194a8.829 8.829 0 0 0 8.828 8.828H512v-25.804H0v16.976zm0 86.246h512v25.804H0zm509.891 51.6H2.109c5.197 15.017 19.453 25.804 36.236 25.804h435.31c16.784 0 31.039-10.787 36.236-25.804zM0 294.71h512v25.803H0z" fill="#ff4b55" data-original="#ff4b55"/><path d="M8.828 268.902h220.69a8.829 8.829 0 0 0 8.828-8.828V97.103a8.828 8.828 0 0 0-8.828-8.828H38.345C17.167 88.276 0 105.443 0 126.621v133.453a8.828 8.828 0 0 0 8.828 8.828z" fill="#41479b" data-original="#41479b"/><path d="m24.789 108.537 1.954 5.86 6.177.047c.8.007 1.131 1.027.488 1.502l-4.969 3.669 1.864 5.889c.242.762-.627 1.394-1.278.928L24 122.841l-5.025 3.592c-.651.466-1.518-.166-1.278-.928l1.864-5.889-4.969-3.669c-.643-.476-.312-1.496.488-1.502l6.177-.047 1.954-5.86c.252-.76 1.324-.76 1.578-.001zm0 30.654 1.954 5.86 6.177.047c.8.007 1.131 1.026.488 1.502l-4.969 3.67 1.864 5.889c.242.762-.627 1.394-1.278.928L24 153.496l-5.025 3.592c-.651.465-1.518-.166-1.278-.928l1.864-5.889-4.969-3.67c-.643-.476-.312-1.495.488-1.502l6.177-.047 1.954-5.86c.252-.759 1.324-.759 1.578-.001zm0 30.655 1.954 5.86 6.177.047c.8.007 1.131 1.026.488 1.502l-4.969 3.67 1.864 5.889c.242.762-.627 1.394-1.278.928L24 184.151l-5.025 3.592c-.651.465-1.518-.165-1.278-.928l1.864-5.889-4.969-3.67c-.643-.476-.312-1.495.488-1.502l6.177-.047 1.954-5.86c.252-.76 1.324-.76 1.578-.001zm0 30.654 1.954 5.86 6.177.047c.8.007 1.131 1.027.488 1.502l-4.969 3.67 1.864 5.889c.242.762-.627 1.394-1.278.928L24 214.805l-5.025 3.592c-.651.465-1.518-.166-1.278-.928l1.864-5.889-4.969-3.67c-.643-.474-.312-1.495.488-1.502l6.177-.047 1.954-5.86c.252-.76 1.324-.76 1.578-.001zm0 30.654 1.954 5.86 6.177.047c.8.007 1.131 1.026.488 1.502l-4.969 3.67 1.864 5.889c.242.762-.627 1.394-1.278.928L24 245.459l-5.025 3.592c-.651.465-1.518-.166-1.278-.928l1.864-5.889-4.969-3.67c-.643-.476-.312-1.495.488-1.502l6.177-.047 1.954-5.86c.252-.759 1.324-.759 1.578-.001zm23.793-107.588 1.954 5.86 6.177.047c.8.007 1.131 1.027.488 1.502l-4.969 3.67 1.864 5.889c.242.762-.627 1.394-1.278.928l-5.025-3.592-5.025 3.592c-.651.465-1.518-.166-1.278-.928l1.864-5.889-4.969-3.67c-.643-.476-.312-1.495.488-1.502l6.177-.047 1.954-5.86c.252-.758 1.325-.758 1.578 0zm0 30.655 1.954 5.86 6.177.047c.8.007 1.131 1.027.488 1.502l-4.969 3.67 1.864 5.889c.242.762-.627 1.394-1.278.928l-5.025-3.592-5.025 3.592c-.651.465-1.518-.165-1.278-.928l1.864-5.889-4.969-3.67c-.643-.474-.312-1.495.488-1.502l6.177-.047 1.954-5.86c.252-.759 1.325-.759 1.578 0zm0 30.654 1.954 5.86 6.177.047c.8.007 1.131 1.026.488 1.502l-4.969 3.67 1.864 5.889c.242.762-.627 1.394-1.278.928l-5.025-3.592-5.025 3.592c-.651.465-1.518-.166-1.278-.928l1.864-5.889-4.969-3.67c-.643-.476-.312-1.495.488-1.502l6.177-.047 1.954-5.86c.252-.759 1.325-.759 1.578 0zm0 30.654 1.954 5.86 6.177.047c.8.007 1.131 1.026.488 1.502l-4.969 3.67 1.864 5.889c.242.762-.627 1.394-1.278.928l-5.025-3.592-5.025 3.592c-.651.466-1.518-.166-1.278-.928l1.864-5.889-4.969-3.67c-.643-.476-.312-1.495.488-1.502l6.177-.047 1.954-5.86c.252-.758 1.325-.758 1.578 0zm23.793-106.992 1.954 5.86 6.177.047c.8.007 1.131 1.027.488 1.502l-4.969 3.669 1.864 5.889c.242.762-.627 1.394-1.278.928l-5.025-3.592-5.025 3.592c-.651.466-1.518-.166-1.278-.928l1.864-5.889-4.969-3.669c-.643-.476-.312-1.496.488-1.502l6.177-.047 1.954-5.86c.252-.759 1.325-.759 1.578 0zm0 30.654 1.954 5.86 6.177.047c.8.007 1.131 1.026.488 1.502l-4.969 3.67 1.864 5.889c.242.762-.627 1.394-1.278.928l-5.025-3.592-5.025 3.592c-.651.465-1.518-.166-1.278-.928l1.864-5.889-4.969-3.67c-.643-.476-.312-1.495.488-1.502l6.177-.047 1.954-5.86c.252-.758 1.325-.758 1.578 0zm0 30.655 1.954 5.86 6.177.047c.8.007 1.131 1.026.488 1.502l-4.969 3.67 1.864 5.889c.242.762-.627 1.394-1.278.928l-5.025-3.592-5.025 3.592c-.651.465-1.518-.165-1.278-.928l1.864-5.889-4.969-3.67c-.643-.476-.312-1.495.488-1.502l6.177-.047 1.954-5.86c.252-.759 1.325-.759 1.578 0zm0 30.654 1.954 5.86 6.177.047c.8.007 1.131 1.027.488 1.502l-4.969 3.67 1.864 5.889c.242.762-.627 1.394-1.278.928l-5.025-3.592-5.025 3.592c-.651.465-1.518-.166-1.278-.928l1.864-5.889-4.969-3.67c-.643-.474-.312-1.495.488-1.502l6.177-.047 1.954-5.86c.252-.759 1.325-.759 1.578 0zm0 30.654 1.954 5.86 6.177.047c.8.007 1.131 1.026.488 1.502l-4.969 3.67 1.864 5.889c.242.762-.627 1.394-1.278.928l-5.025-3.592-5.025 3.592c-.651.465-1.518-.166-1.278-.928l1.864-5.889-4.969-3.67c-.643-.476-.312-1.495.488-1.502l6.177-.047 1.954-5.86c.252-.758 1.325-.758 1.578 0zm23.794-107.588 1.954 5.86 6.177.047c.8.007 1.131 1.027.488 1.502l-4.969 3.67 1.864 5.889c.242.762-.627 1.394-1.278.928l-5.025-3.592-5.025 3.592c-.651.465-1.518-.166-1.278-.928l1.864-5.889-4.969-3.67c-.643-.476-.312-1.495.488-1.502l6.177-.047 1.954-5.86c.251-.758 1.325-.758 1.578 0zm0 30.655 1.954 5.86 6.177.047c.8.007 1.131 1.027.488 1.502l-4.969 3.67 1.864 5.889c.242.762-.627 1.394-1.278.928l-5.025-3.592-5.025 3.592c-.651.465-1.518-.165-1.278-.928l1.864-5.889-4.969-3.67c-.643-.474-.312-1.495.488-1.502l6.177-.047 1.954-5.86c.251-.759 1.325-.759 1.578 0zm0 30.654 1.954 5.86 6.177.047c.8.007 1.131 1.026.488 1.502l-4.969 3.67 1.864 5.889c.242.762-.627 1.394-1.278.928l-5.025-3.592-5.025 3.592c-.651.465-1.518-.166-1.278-.928l1.864-5.889-4.969-3.67c-.643-.476-.312-1.495.488-1.502l6.177-.047 1.954-5.86c.251-.759 1.325-.759 1.578 0zm0 30.654 1.954 5.86 6.177.047c.8.007 1.131 1.026.488 1.502l-4.969 3.67 1.864 5.889c.242.762-.627 1.394-1.278.928l-5.025-3.592-5.025 3.592c-.651.466-1.518-.166-1.278-.928l1.864-5.889-4.969-3.67c-.643-.476-.312-1.495.488-1.502l6.177-.047 1.954-5.86c.251-.758 1.325-.758 1.578 0zm23.793-106.992 1.954 5.86 6.177.047c.8.007 1.131 1.027.488 1.502l-4.969 3.669 1.864 5.889c.242.762-.627 1.394-1.278.928l-5.026-3.591-5.025 3.592c-.651.466-1.518-.166-1.278-.928l1.864-5.889-4.969-3.669c-.643-.476-.312-1.496.488-1.502l6.177-.047 1.954-5.86c.253-.76 1.326-.76 1.579-.001zm0 30.654 1.954 5.86 6.177.047c.8.007 1.131 1.026.488 1.502l-4.969 3.67 1.864 5.889c.242.762-.627 1.394-1.278.928l-5.026-3.592-5.025 3.592c-.651.465-1.518-.166-1.278-.928l1.864-5.889-4.969-3.67c-.643-.476-.312-1.495.488-1.502l6.177-.047 1.954-5.86c.253-.758 1.326-.758 1.579 0zm0 30.655 1.954 5.86 6.177.047c.8.007 1.131 1.026.488 1.502l-4.969 3.67 1.864 5.889c.242.762-.627 1.394-1.278.928l-5.026-3.593-5.025 3.592c-.651.465-1.518-.166-1.278-.928l1.864-5.889-4.969-3.67c-.643-.476-.312-1.495.488-1.502l6.177-.047 1.954-5.86c.253-.758 1.326-.758 1.579.001zm0 30.654 1.954 5.86 6.177.047c.8.007 1.131 1.027.488 1.502l-4.969 3.67 1.864 5.889c.242.762-.627 1.394-1.278.928l-5.026-3.592-5.025 3.592c-.651.465-1.518-.166-1.278-.928l1.864-5.889-4.969-3.67c-.643-.474-.312-1.495.488-1.502l6.177-.047 1.954-5.86c.253-.759 1.326-.759 1.579 0zm0 30.654 1.954 5.86 6.177.047c.8.007 1.131 1.026.488 1.502l-4.969 3.67 1.864 5.889c.242.762-.627 1.394-1.278.928l-5.026-3.592-5.025 3.592c-.651.465-1.518-.166-1.278-.928l1.864-5.889-4.969-3.67c-.643-.476-.312-1.495.488-1.502l6.177-.047 1.954-5.86c.253-.758 1.326-.758 1.579 0zm23.793-107.588 1.954 5.86 6.177.047c.8.007 1.131 1.027.488 1.502l-4.969 3.67 1.864 5.889c.242.762-.627 1.394-1.278.928l-5.025-3.592-5.025 3.592c-.651.465-1.518-.166-1.278-.928l1.864-5.889-4.969-3.67c-.643-.476-.312-1.495.488-1.502l6.177-.047 1.954-5.86c.253-.758 1.325-.758 1.578 0zm0 30.655 1.954 5.86 6.177.047c.8.007 1.131 1.027.488 1.502l-4.969 3.67 1.864 5.889c.242.762-.627 1.394-1.278.928l-5.025-3.592-5.025 3.592c-.651.465-1.518-.165-1.278-.928l1.864-5.889-4.969-3.67c-.643-.474-.312-1.495.488-1.502l6.177-.047 1.954-5.86c.253-.759 1.325-.759 1.578 0zm0 30.654 1.954 5.86 6.177.047c.8.007 1.131 1.026.488 1.502l-4.969 3.67 1.864 5.889c.242.762-.627 1.394-1.278.928l-5.025-3.592-5.025 3.592c-.651.465-1.518-.166-1.278-.928l1.864-5.889-4.969-3.67c-.643-.476-.312-1.495.488-1.502l6.177-.047 1.954-5.86c.253-.759 1.325-.759 1.578 0zm0 30.654 1.954 5.86 6.177.047c.8.007 1.131 1.026.488 1.502l-4.969 3.67 1.864 5.889c.242.762-.627 1.394-1.278.928l-5.025-3.592-5.025 3.592c-.651.466-1.518-.166-1.278-.928l1.864-5.889-4.969-3.67c-.643-.476-.312-1.495.488-1.502l6.177-.047 1.954-5.86c.253-.758 1.325-.758 1.578 0zm23.794-106.992 1.954 5.86 6.177.047c.8.007 1.131 1.027.488 1.502l-4.969 3.669 1.864 5.889c.242.762-.627 1.394-1.278.928l-5.025-3.592-5.025 3.592c-.651.466-1.518-.166-1.278-.928l1.864-5.889-4.969-3.669c-.643-.476-.312-1.496.488-1.502l6.177-.047 1.954-5.86c.251-.759 1.325-.759 1.578 0zm0 30.654 1.954 5.86 6.177.047c.8.007 1.131 1.026.488 1.502l-4.969 3.67 1.864 5.889c.242.762-.627 1.394-1.278.928l-5.025-3.592-5.025 3.592c-.651.465-1.518-.166-1.278-.928l1.864-5.889-4.969-3.67c-.643-.476-.312-1.495.488-1.502l6.177-.047 1.954-5.86c.251-.758 1.325-.758 1.578 0zm0 30.655 1.954 5.86 6.177.047c.8.007 1.131 1.026.488 1.502l-4.969 3.67 1.864 5.889c.242.762-.627 1.394-1.278.928l-5.025-3.592-5.025 3.592c-.651.465-1.518-.165-1.278-.928l1.864-5.889-4.969-3.67c-.643-.476-.312-1.495.488-1.502l6.177-.047 1.954-5.86c.251-.759 1.325-.759 1.578 0zm0 30.654 1.954 5.86 6.177.047c.8.007 1.131 1.027.488 1.502l-4.969 3.67 1.864 5.889c.242.762-.627 1.394-1.278.928l-5.025-3.592-5.025 3.592c-.651.465-1.518-.166-1.278-.928l1.864-5.889-4.969-3.67c-.643-.474-.312-1.495.488-1.502l6.177-.047 1.954-5.86c.251-.759 1.325-.759 1.578 0zm0 30.654 1.954 5.86 6.177.047c.8.007 1.131 1.026.488 1.502l-4.969 3.67 1.864 5.889c.242.762-.627 1.394-1.278.928l-5.025-3.592-5.025 3.592c-.651.465-1.518-.166-1.278-.928l1.864-5.889-4.969-3.67c-.643-.476-.312-1.495.488-1.502l6.177-.047 1.954-5.86c.251-.758 1.325-.758 1.578 0zm23.793-107.588 1.954 5.86 6.177.047c.8.007 1.131 1.027.488 1.502l-4.969 3.67 1.864 5.889c.242.762-.627 1.394-1.278.928l-5.025-3.592-5.025 3.592c-.651.465-1.518-.166-1.278-.928l1.864-5.889-4.969-3.67c-.643-.476-.312-1.495.488-1.502l6.177-.047 1.954-5.86c.252-.758 1.325-.758 1.578 0zm0 30.655 1.954 5.86 6.177.047c.8.007 1.131 1.027.488 1.502l-4.969 3.67 1.864 5.889c.242.762-.627 1.394-1.278.928l-5.025-3.592-5.025 3.592c-.651.465-1.518-.165-1.278-.928l1.864-5.889-4.969-3.67c-.643-.474-.312-1.495.488-1.502l6.177-.047 1.954-5.86c.252-.759 1.325-.759 1.578 0zm0 30.654 1.954 5.86 6.177.047c.8.007 1.131 1.026.488 1.502l-4.969 3.67 1.864 5.889c.242.762-.627 1.394-1.278.928l-5.025-3.592-5.025 3.592c-.651.465-1.518-.166-1.278-.928l1.864-5.889-4.969-3.67c-.643-.476-.312-1.495.488-1.502l6.177-.047 1.954-5.86c.252-.759 1.325-.759 1.578 0zm0 30.654 1.954 5.86 6.177.047c.8.007 1.131 1.026.488 1.502l-4.969 3.67 1.864 5.889c.242.762-.627 1.394-1.278.928l-5.025-3.592-5.025 3.592c-.651.466-1.518-.166-1.278-.928l1.864-5.889-4.969-3.67c-.643-.476-.312-1.495.488-1.502l6.177-.047 1.954-5.86c.252-.758 1.325-.758 1.578 0zm23.794-106.992 1.954 5.86 6.177.047c.8.007 1.131 1.027.488 1.502l-4.969 3.669 1.864 5.889c.242.762-.627 1.394-1.278.928l-5.025-3.592-5.025 3.592c-.651.466-1.518-.166-1.278-.928l1.864-5.889-4.969-3.669c-.643-.476-.312-1.496.488-1.502l6.177-.047 1.954-5.86c.252-.759 1.324-.759 1.578 0zm0 30.654 1.954 5.86 6.177.047c.8.007 1.131 1.026.488 1.502l-4.969 3.67 1.864 5.889c.242.762-.627 1.394-1.278.928l-5.025-3.592-5.025 3.592c-.651.465-1.518-.166-1.278-.928l1.864-5.889-4.969-3.67c-.643-.476-.312-1.495.488-1.502l6.177-.047 1.954-5.86c.252-.758 1.324-.758 1.578 0zm0 30.655 1.954 5.86 6.177.047c.8.007 1.131 1.026.488 1.502l-4.969 3.67 1.864 5.889c.242.762-.627 1.394-1.278.928l-5.025-3.592-5.025 3.592c-.651.465-1.518-.165-1.278-.928l1.864-5.889-4.969-3.67c-.643-.476-.312-1.495.488-1.502l6.177-.047 1.954-5.86c.252-.759 1.324-.759 1.578 0zm0 30.654 1.954 5.86 6.177.047c.8.007 1.131 1.027.488 1.502l-4.969 3.67 1.864 5.889c.242.762-.627 1.394-1.278.928l-5.025-3.592-5.025 3.592c-.651.465-1.518-.166-1.278-.928l1.864-5.889-4.969-3.67c-.643-.474-.312-1.495.488-1.502l6.177-.047 1.954-5.86c.252-.759 1.324-.759 1.578 0zm0 30.654 1.954 5.86 6.177.047c.8.007 1.131 1.026.488 1.502l-4.969 3.67 1.864 5.889c.242.762-.627 1.394-1.278.928l-5.025-3.592-5.025 3.592c-.651.465-1.518-.166-1.278-.928l1.864-5.889-4.969-3.67c-.643-.476-.312-1.495.488-1.502l6.177-.047 1.954-5.86c.252-.758 1.324-.758 1.578 0z" fill="#f5f5f5" data-original="#f5f5f5"/></svg><view id="lang-ru" viewBox="0 1024 512 512"/><svg width="512" height="512" style="enable-background:new 0 0 512 512" xml:space="preserve" viewBox="0 0 512 512" y="1024" xmlns="http://www.w3.org/2000/svg"><path d="M473.655 88.276H38.345C17.167 88.276 0 105.443 0 126.621v73.471h512v-73.471c0-21.178-17.167-38.345-38.345-38.345z" fill="#f5f5f5" data-original="#f5f5f5"/><path d="M0 385.379c0 21.177 17.167 38.345 38.345 38.345h435.31c21.177 0 38.345-17.167 38.345-38.345v-73.471H0v73.471z" fill="#ff4b55" data-original="#ff4b55"/><path d="M0 200.09h512V311.9H0z" fill="#41479b" data-original="#41479b"/></svg><view id="like" viewBox="1712 1024 25 24"/><svg width="25" height="24" viewBox="0 0 25 24" x="1712" y="1024" xmlns="http://www.w3.org/2000/svg"><path d="M22.134 10.08a3 3 0 0 0-2.3-1.08h-4.56l.56-1.43A4.13 4.13 0 0 0 11.944 2a1 1 0 0 0-.91.59L8.184 9h-2.35a3 3 0 0 0-3 3v7a3 3 0 0 0 3 3h12.73a3 3 0 0 0 2.95-2.46l1.27-7a3.001 3.001 0 0 0-.65-2.46ZM7.834 20h-2a1 1 0 0 1-1-1v-7a1 1 0 0 1 1-1h2v9Zm13-7.82-1.27 7a1 1 0 0 1-1 .82h-8.73v-9.79l2.72-6.12a2.11 2.11 0 0 1 1.38 2.78l-.53 1.43a2 2 0 0 0 1.87 2.7h4.56a.999.999 0 0 1 .77.36 1 1 0 0 1 .23.82Z"/></svg><view id="list-1" viewBox="1905 1024 24 24"/><svg width="24" height="24" viewBox="0 0 24 24" x="1905" y="1024" xmlns="http://www.w3.org/2000/svg"><path d="M20.25 2c.375 0 .75.375.75.75V5h2.25c.375 0 .75.375.75.75 0 .422-.375.75-.75.75H21v2.25c0 .422-.375.75-.75.75a.74.74 0 0 1-.75-.75V6.5h-2.25a.74.74 0 0 1-.75-.75c0-.375.328-.75.75-.75h2.25V2.75c0-.375.328-.75.75-.75Zm0 13.5c.375 0 .75.375.75.75v2.25h2.25c.375 0 .75.375.75.75 0 .422-.375.75-.75.75H21v2.25c0 .422-.375.75-.75.75a.74.74 0 0 1-.75-.75V20h-2.25a.74.74 0 0 1-.75-.75c0-.375.328-.75.75-.75h2.25v-2.25c0-.375.328-.75.75-.75Zm-14.484.094L.422 13.156A.773.773 0 0 1 0 12.453c0-.281.14-.562.422-.703l5.344-2.438L8.25 3.97a.705.705 0 0 1 .656-.469c.281 0 .563.188.703.469l2.438 5.344 5.344 2.437c.28.14.468.422.468.703 0 .281-.187.563-.468.703l-5.344 2.438-2.438 5.344c-.14.28-.421.468-.703.468a.705.705 0 0 1-.656-.468l-2.484-5.344Zm-3.235-3.14 3.844 1.78c.328.141.61.422.75.75l1.781 3.844 1.781-3.844c.141-.328.422-.609.75-.75l3.844-1.78-3.844-1.782a1.464 1.464 0 0 1-.75-.75l-1.78-3.844-1.782 3.844c-.14.328-.422.61-.75.75l-3.844 1.781Z"/></svg><view id="list-2" viewBox="1929 1024 24 24"/><svg width="24" height="24" viewBox="0 0 24 24" x="1929" y="1024" xmlns="http://www.w3.org/2000/svg"><g clip-path="url(#axa)"><path d="m21.844 4.438-9-3.75a2.729 2.729 0 0 0-1.734 0l-9 3.75A2.243 2.243 0 0 0 .75 6.5c0 12.094 8.86 18 11.203 18 2.344 0 11.297-5.813 11.297-18 0-.89-.563-1.688-1.406-2.063Zm-.14 2.109C21.703 17.094 13.921 23 12 23c-2.016 0-9.75-5.953-9.75-16.5 0-.281.14-.563.422-.656l9-3.75A.677.677 0 0 1 12 2c.094 0 .188.047.281.094l9 3.75c.422.187.422.562.422.703ZM15.75 9.03c-.234 0-.422.047-.563.188l-4.453 4.5-1.968-1.969a.753.753 0 0 0-.516-.234.74.74 0 0 0-.75.75.9.9 0 0 0 .188.562l2.53 2.485c.141.14.329.187.516.187.188 0 .375-.047.516-.188l5.016-5.015a.753.753 0 0 0 .234-.516.74.74 0 0 0-.75-.75Z"/></g><defs><clipPath id="axa"><path transform="translate(0 .5)" d="M0 0h24v24H0z"/></clipPath></defs></svg><view id="list-3" viewBox="1601 1024 30 30"/><svg width="30" height="30" viewBox="0 0 30 30" x="1601" y="1024" xmlns="http://www.w3.org/2000/svg"><path d="M7.875 18.5h14.25A4.871 4.871 0 0 0 27 13.625c0-2.531-2.016-4.64-4.547-4.828C22.266 6.687 20.484 5 18.375 5c-.844 0-1.64.281-2.344.75a5.484 5.484 0 0 0-4.406-2.25A5.611 5.611 0 0 0 6 9.125v.047c-1.828.75-3 2.484-3 4.5C3 16.344 5.156 18.5 7.875 18.5Zm-.89-8.11c.327-.093.609-.421.562-.796-.047-.281-.047-.328-.047-.469A4.131 4.131 0 0 1 11.625 5c1.5 0 2.86.844 3.61 2.203a.753.753 0 0 0 1.218.188 2.479 2.479 0 0 1 2.297-.844c1.172.187 2.063 1.172 2.203 2.39.047.235.047.235 0 .516-.094.516.328.89.797.844h.375c1.828 0 3.375 1.5 3.375 3.375 0 1.828-1.547 3.375-3.375 3.375H7.875C6 17.047 4.5 15.5 4.5 13.672c0-1.547.984-2.86 2.484-3.281ZM9.75 26h-6c-.422 0-.75.375-.75.75 0 .422.328.75.75.75h6c.375 0 .75-.328.75-.75 0-.375-.375-.75-.75-.75Zm19.5 0h-15c-.422 0-.75.375-.75.75 0 .422.328.75.75.75h15c.375 0 .75-.328.75-.75 0-.375-.375-.75-.75-.75ZM27 22.25c0-.375-.375-.75-.75-.75H.75c-.422 0-.75.375-.75.75 0 .328.328.75.75.75h25.5c.375 0 .75-.328.75-.75Z"/></svg><view id="list-4" viewBox="1659 1024 28 28"/><svg width="28" height="28" viewBox="0 0 28 28" x="1659" y="1024" xmlns="http://www.w3.org/2000/svg"><path d="M20 14.5c0 3.328-2.719 6-6 6-3.328 0-6-2.672-6-6 0-3.281 2.672-6 6-6 3.281 0 6 2.719 6 6ZM14 10a4.471 4.471 0 0 0-4.5 4.5c0 2.484 1.969 4.5 4.5 4.5a4.501 4.501 0 0 0 0-9Zm9-2.203c2.203 2.016 3.656 4.453 4.36 6.14.14.376.14.797 0 1.172-.704 1.641-2.157 4.079-4.36 6.141-2.203 2.063-5.25 3.75-9 3.75-3.797 0-6.844-1.688-9.047-3.75-2.203-2.063-3.656-4.5-4.36-6.14a1.68 1.68 0 0 1 0-1.172c.704-1.688 2.157-4.126 4.36-6.141C7.156 5.734 10.203 4 14 4c3.75 0 6.797 1.734 9 3.797ZM2 14.5c.61 1.5 1.969 3.75 3.984 5.625C8 22 10.672 23.5 14 23.5c3.281 0 5.953-1.5 7.969-3.375C23.984 18.25 25.344 16 26 14.5c-.656-1.5-2.016-3.75-4.031-5.625C19.953 7 17.28 5.5 14 5.5c-3.328 0-6 1.5-8.016 3.375C3.97 10.75 2.61 13 2 14.5Z"/></svg><view id="list-5" viewBox="1953 1024 24 24"/><svg width="24" height="24" viewBox="0 0 24 24" x="1953" y="1024" xmlns="http://www.w3.org/2000/svg"><g clip-path="url(#baa)"><path d="M21.89 2.61C20.532 1.25 18.798.5 16.923.5c-2.203 0-4.594 1.031-6.89 3.328L6.046 7.86c-3.75 3.704-3.375 9.891-2.531 12.047L.187 23.234c-.14.141-.187.328-.187.516 0 .422.281.75.703.75.188 0 .375-.047.516-.188l3.328-3.328c.797.328 2.156.563 3.703.563 2.672 0 5.953-.703 8.344-3.094l4.031-3.984c4.266-4.266 4.172-8.906 1.266-11.86ZM7.079 8.89l4.031-3.984C12.984 3.031 15 2 16.922 2c1.406 0 2.812.61 3.89 1.688 1.97 1.968 2.157 4.687.61 7.359h-6.89l1.734-1.781a.736.736 0 0 0 0-1.032.736.736 0 0 0-1.032 0l-10.5 10.5c-.468-2.062-.656-6.843 2.344-9.843Zm1.219 11.157c-1.078 0-1.875-.14-2.485-.281L8.533 17l7.405.047-.328.375c-2.296 2.297-5.578 2.625-7.312 2.625Zm9.14-4.5h-7.406l2.953-3h7.313c-.188.281-2.86 3-2.86 3Z"/></g><defs><clipPath id="baa"><path transform="translate(0 .5)" d="M0 0h24v24H0z"/></clipPath></defs></svg><view id="list-6" viewBox="1977 1024 24 24"/><svg width="24" height="24" viewBox="0 0 24 24" x="1977" y="1024" xmlns="http://www.w3.org/2000/svg"><g clip-path="url(#bba)"><path d="M11.016 10.484c-.282-.28-.797-.28-1.079 0-.28.282-.28.797 0 1.079l3 3c.141.14.329.187.563.187a.753.753 0 0 0 .516-.234c.28-.282.28-.75 0-1.079l-3-2.953Zm-3.75.75c-.282-.28-.797-.28-1.079 0-.28.282-.28.797 0 1.079l6 6c.141.14.329.234.516.234a.776.776 0 0 0 .563-.235c.28-.28.28-.796 0-1.078l-6-6Zm-.75 3.75c-.282-.28-.797-.28-1.079 0-.28.282-.28.797 0 1.079l3 3c.141.14.329.234.516.234a.776.776 0 0 0 .563-.235c.28-.28.28-.796 0-1.078l-3-3Zm11.296-8.296C16.22 5.093 14.11 4.203 11.954 4.25c-2.156.047-4.172.938-5.765 2.484-.282.282-.282.797 0 1.079.28.28.796.28 1.078 0A6.525 6.525 0 0 1 12 5.796c1.828 0 3.469.656 4.781 1.922 1.266 1.312 1.969 3 1.969 4.781-.047 1.781-.75 3.469-2.063 4.734-.28.282-.28.797 0 1.078.141.141.329.235.563.235a.753.753 0 0 0 .516-.235c1.547-1.593 2.437-3.609 2.484-5.765 0-2.203-.844-4.313-2.438-5.86ZM12 .5C5.344.5 0 5.89 0 12.5c0 6.656 5.344 12 12 12 6.61 0 12-5.344 12-12 0-6.61-5.39-12-12-12ZM12 23C6.187 23 1.5 18.312 1.5 12.5 1.5 6.734 6.188 2 12 2c5.766 0 10.5 4.734 10.5 10.5C22.5 18.313 17.766 23 12 23Z"/></g><defs><clipPath id="bba"><path transform="translate(0 .5)" d="M0 0h24v24H0z"/></clipPath></defs></svg><view id="list-7" viewBox="2001 1024 24 24"/><svg width="24" height="24" viewBox="0 0 24 24" x="2001" y="1024" xmlns="http://www.w3.org/2000/svg"><g clip-path="url(#bca)"><path d="M10.969.734C11.297.594 11.625.5 12 .5c.328 0 .656.094.984.234l10.22 4.594c.468.188.796.656.796 1.172 0 .563-.328 1.031-.797 1.219l-10.219 4.593c-.328.141-.656.188-.984.188-.375 0-.703-.047-1.031-.188L.75 7.72C.281 7.53 0 7.062 0 6.5c0-.516.281-.984.75-1.172L10.969.734ZM12 2a.936.936 0 0 0-.422.094L1.734 6.5l9.844 4.453c.094.047.235.047.422.047.14 0 .281 0 .375-.047L22.219 6.5l-9.844-4.406A.883.883 0 0 0 12 2Zm-8.344 8.813c.188.374 0 .843-.375 1.03l-1.547.657 9.844 4.453c.094.047.235.047.422.047.14 0 .281 0 .375-.047l9.844-4.453-1.547-.656c-.375-.188-.563-.656-.375-1.031a.777.777 0 0 1 .984-.376l1.922.891c.469.188.797.656.797 1.172 0 .563-.328 1.031-.797 1.219l-10.219 4.594c-.328.14-.656.187-.984.187-.375 0-.703-.047-1.031-.188L.75 13.72C.281 13.53 0 13.063 0 12.5c0-.516.281-.984.75-1.172l1.922-.89c.375-.141.797 0 .984.374ZM1.734 18.5l9.844 4.453c.094.047.235.047.422.047.14 0 .281 0 .375-.047l9.844-4.453-1.547-.656c-.375-.188-.563-.657-.375-1.032a.777.777 0 0 1 .984-.375l1.922.891c.469.188.797.656.797 1.172 0 .563-.328 1.031-.797 1.219l-10.219 4.593c-.328.141-.656.188-.984.188-.375 0-.703-.047-1.031-.188L.75 19.72C.281 19.53 0 19.062 0 18.5c0-.516.281-.984.75-1.172l1.922-.89c.375-.141.797 0 .984.375.188.375 0 .843-.375 1.03l-1.547.657Z"/></g><defs><clipPath id="bca"><path transform="translate(0 .5)" d="M0 0h24v24H0z"/></clipPath></defs></svg><view id="list-8" viewBox="1680 1060 24 24"/><svg width="24" height="24" viewBox="0 0 24 24" x="1680" y="1060" xmlns="http://www.w3.org/2000/svg"><g clip-path="url(#bda)"><path d="M11.25 18.125c-.656 0-1.125.516-1.125 1.172 0 .61.469 1.078 1.125 1.078.61 0 1.125-.469 1.125-1.078 0-.656-.516-1.172-1.125-1.172Zm3.75 3.75c-.656 0-1.125.516-1.125 1.172 0 .61.469 1.078 1.125 1.078.61 0 1.125-.469 1.125-1.078 0-.656-.516-1.172-1.125-1.172Zm-7.5 0c-.656 0-1.125.516-1.125 1.172 0 .61.469 1.078 1.125 1.078.61 0 1.125-.469 1.125-1.078 0-.656-.516-1.172-1.125-1.172ZM5.766 9.5l-.797-3.984 3.984.796c.281.047.61-.046.75-.328L12 2.61l2.25 3.375c.14.282.469.375.797.329l4.031-1.032c.094 0 .235-.093.328-.187.188-.188.282-.422.188-.703a.74.74 0 0 0-.89-.563l-3.517.89L12.61.876C12.47.641 12.234.5 12 .5a.748.748 0 0 0-.656.375L8.766 4.719l-4.594-.89H3.89c-.094.046-.188.046-.282.14 0 0-.046 0-.046.047-.047.046-.141.093-.141.14-.094.094-.094.188-.14.282v.28l.937 4.595-3.89 2.578A.683.683 0 0 0 0 12.5c0 .281.094.516.328.656l3.844 2.578-.89 3.516a.74.74 0 0 0 .562.89c.281.047.515 0 .703-.187.094-.094.187-.234.187-.328l1.032-4.031a.67.67 0 0 0-.329-.797L2.063 12.5l3.376-2.25c.28-.14.375-.469.328-.75ZM22.5 9.125c.61 0 1.125-.469 1.125-1.078 0-.656-.516-1.172-1.125-1.172-.656 0-1.125.516-1.125 1.172 0 .61.469 1.078 1.125 1.078Zm-3.75 9c-.656 0-1.125.516-1.125 1.172 0 .61.469 1.078 1.125 1.078.61 0 1.125-.469 1.125-1.078 0-.656-.516-1.172-1.125-1.172Zm3.75 3.75c-.656 0-1.125.516-1.125 1.172 0 .61.469 1.078 1.125 1.078.61 0 1.125-.469 1.125-1.078 0-.656-.516-1.172-1.125-1.172Zm-7.5-7.5c-.656 0-1.125.516-1.125 1.172 0 .61.469 1.078 1.125 1.078.61 0 1.125-.469 1.125-1.078 0-.656-.516-1.172-1.125-1.172Zm7.5 0c-.656 0-1.125.516-1.125 1.172 0 .61.469 1.078 1.125 1.078.61 0 1.125-.469 1.125-1.078 0-.656-.516-1.172-1.125-1.172Zm-3.75-3.75c-.656 0-1.125.516-1.125 1.172 0 .61.469 1.078 1.125 1.078.61 0 1.125-.469 1.125-1.078 0-.656-.516-1.172-1.125-1.172Zm-9.14-.469a3.141 3.141 0 0 1 4.5 0c.328.281.796.281 1.078 0 .28-.328.28-.797 0-1.078-1.829-1.828-4.829-1.828-6.657 0-1.828 1.828-1.828 4.828 0 6.656.14.141.328.235.516.235.187 0 .375-.094.562-.235.282-.28.282-.796 0-1.078-1.218-1.219-1.218-3.234 0-4.5Z"/></g><defs><clipPath id="bda"><path transform="translate(0 .5)" d="M0 0h24v24H0z"/></clipPath></defs></svg><view id="list-icon-1" viewBox="1536 1060 24 25"/><svg width="24" height="25" viewBox="0 0 24 25" x="1536" y="1060" xmlns="http://www.w3.org/2000/svg"><path d="M20.25 2c.375 0 .75.375.75.75V5h2.25c.375 0 .75.375.75.75 0 .422-.375.75-.75.75H21v2.25c0 .422-.375.75-.75.75a.74.74 0 0 1-.75-.75V6.5h-2.25a.74.74 0 0 1-.75-.75c0-.375.328-.75.75-.75h2.25V2.75c0-.375.328-.75.75-.75Zm0 13.5c.375 0 .75.375.75.75v2.25h2.25c.375 0 .75.375.75.75 0 .422-.375.75-.75.75H21v2.25c0 .422-.375.75-.75.75a.74.74 0 0 1-.75-.75V20h-2.25a.74.74 0 0 1-.75-.75c0-.375.328-.75.75-.75h2.25v-2.25c0-.375.328-.75.75-.75Zm-14.484.094L.422 13.156A.773.773 0 0 1 0 12.453c0-.281.14-.562.422-.703l5.344-2.438L8.25 3.97a.705.705 0 0 1 .656-.469c.281 0 .563.188.703.469l2.438 5.344 5.344 2.437c.28.14.468.422.468.703 0 .281-.187.563-.468.703l-5.344 2.438-2.438 5.344c-.14.28-.421.468-.703.468a.705.705 0 0 1-.656-.468l-2.484-5.344Zm-3.235-3.14 3.844 1.78c.328.141.61.422.75.75l1.781 3.844 1.781-3.844c.141-.328.422-.609.75-.75l3.844-1.78-3.844-1.782a1.464 1.464 0 0 1-.75-.75l-1.78-3.844-1.782 3.844c-.14.328-.422.61-.75.75l-3.844 1.781Z"/></svg><view id="list-icon-2" viewBox="1560 1060 24 25"/><svg width="24" height="25" viewBox="0 0 24 25" x="1560" y="1060" xmlns="http://www.w3.org/2000/svg"><g clip-path="url(#bfa)"><path d="m21.844 4.438-9-3.75a2.729 2.729 0 0 0-1.734 0l-9 3.75A2.243 2.243 0 0 0 .75 6.5c0 12.094 8.86 18 11.203 18 2.344 0 11.297-5.813 11.297-18 0-.89-.563-1.688-1.406-2.063Zm-.14 2.109C21.703 17.094 13.921 23 12 23c-2.016 0-9.75-5.953-9.75-16.5 0-.281.14-.563.422-.656l9-3.75A.677.677 0 0 1 12 2c.094 0 .188.047.281.094l9 3.75c.422.187.422.562.422.703ZM15.75 9.03c-.234 0-.422.047-.563.188l-4.453 4.5-1.968-1.969a.753.753 0 0 0-.516-.234.74.74 0 0 0-.75.75.9.9 0 0 0 .188.562l2.53 2.485c.141.14.329.187.516.187.188 0 .375-.047.516-.188l5.016-5.015a.753.753 0 0 0 .234-.516.74.74 0 0 0-.75-.75Z"/></g><defs><clipPath id="bfa"><path transform="translate(0 .5)" d="M0 0h24v24H0z"/></clipPath></defs></svg><view id="list-icon-3" viewBox="1571 1024 30 31"/><svg width="30" height="31" viewBox="0 0 30 31" x="1571" y="1024" xmlns="http://www.w3.org/2000/svg"><path d="M7.875 18.5h14.25A4.871 4.871 0 0 0 27 13.625c0-2.531-2.016-4.64-4.547-4.828C22.266 6.687 20.484 5 18.375 5c-.844 0-1.64.281-2.344.75a5.484 5.484 0 0 0-4.406-2.25A5.611 5.611 0 0 0 6 9.125v.047c-1.828.75-3 2.484-3 4.5C3 16.344 5.156 18.5 7.875 18.5Zm-.89-8.11c.327-.093.609-.421.562-.796-.047-.281-.047-.328-.047-.469A4.131 4.131 0 0 1 11.625 5c1.5 0 2.86.844 3.61 2.203a.753.753 0 0 0 1.218.188 2.479 2.479 0 0 1 2.297-.844c1.172.187 2.063 1.172 2.203 2.39.047.235.047.235 0 .516-.094.516.328.89.797.844h.375c1.828 0 3.375 1.5 3.375 3.375 0 1.828-1.547 3.375-3.375 3.375H7.875C6 17.047 4.5 15.5 4.5 13.672c0-1.547.984-2.86 2.484-3.281ZM9.75 26h-6c-.422 0-.75.375-.75.75 0 .422.328.75.75.75h6c.375 0 .75-.328.75-.75 0-.375-.375-.75-.75-.75Zm19.5 0h-15c-.422 0-.75.375-.75.75 0 .422.328.75.75.75h15c.375 0 .75-.328.75-.75 0-.375-.375-.75-.75-.75ZM27 22.25c0-.375-.375-.75-.75-.75H.75c-.422 0-.75.375-.75.75 0 .328.328.75.75.75h25.5c.375 0 .75-.328.75-.75Z"/></svg><view id="list-icon-4" viewBox="1631 1024 28 29"/><svg width="28" height="29" viewBox="0 0 28 29" x="1631" y="1024" xmlns="http://www.w3.org/2000/svg"><path d="M20 14.5c0 3.328-2.719 6-6 6-3.328 0-6-2.672-6-6 0-3.281 2.672-6 6-6 3.281 0 6 2.719 6 6ZM14 10a4.471 4.471 0 0 0-4.5 4.5c0 2.484 1.969 4.5 4.5 4.5a4.501 4.501 0 0 0 0-9Zm9-2.203c2.203 2.016 3.656 4.453 4.36 6.14.14.376.14.797 0 1.172-.704 1.641-2.157 4.079-4.36 6.141-2.203 2.063-5.25 3.75-9 3.75-3.797 0-6.844-1.688-9.047-3.75-2.203-2.063-3.656-4.5-4.36-6.14a1.68 1.68 0 0 1 0-1.172c.704-1.688 2.157-4.126 4.36-6.141C7.156 5.734 10.203 4 14 4c3.75 0 6.797 1.734 9 3.797ZM2 14.5c.61 1.5 1.969 3.75 3.984 5.625C8 22 10.672 23.5 14 23.5c3.281 0 5.953-1.5 7.969-3.375C23.984 18.25 25.344 16 26 14.5c-.656-1.5-2.016-3.75-4.031-5.625C19.953 7 17.28 5.5 14 5.5c-3.328 0-6 1.5-8.016 3.375C3.97 10.75 2.61 13 2 14.5Z"/></svg><view id="list-icon-5" viewBox="1584 1060 24 25"/><svg width="24" height="25" viewBox="0 0 24 25" x="1584" y="1060" xmlns="http://www.w3.org/2000/svg"><g clip-path="url(#bia)"><path d="M21.89 2.61C20.532 1.25 18.798.5 16.923.5c-2.203 0-4.594 1.031-6.89 3.328L6.046 7.86c-3.75 3.704-3.375 9.891-2.531 12.047L.187 23.234c-.14.141-.187.328-.187.516 0 .422.281.75.703.75.188 0 .375-.047.516-.188l3.328-3.328c.797.328 2.156.563 3.703.563 2.672 0 5.953-.703 8.344-3.094l4.031-3.984c4.266-4.266 4.172-8.906 1.266-11.86ZM7.079 8.89l4.031-3.984C12.984 3.031 15 2 16.922 2c1.406 0 2.812.61 3.89 1.688 1.97 1.968 2.157 4.687.61 7.359h-6.89l1.734-1.781a.736.736 0 0 0 0-1.032.736.736 0 0 0-1.032 0l-10.5 10.5c-.468-2.062-.656-6.843 2.344-9.843Zm1.219 11.157c-1.078 0-1.875-.14-2.485-.281L8.533 17l7.405.047-.328.375c-2.296 2.297-5.578 2.625-7.312 2.625Zm9.14-4.5h-7.406l2.953-3h7.313c-.188.281-2.86 3-2.86 3Z"/></g><defs><clipPath id="bia"><path transform="translate(0 .5)" d="M0 0h24v24H0z"/></clipPath></defs></svg><view id="list-icon-6" viewBox="1608 1060 24 25"/><svg width="24" height="25" viewBox="0 0 24 25" x="1608" y="1060" xmlns="http://www.w3.org/2000/svg"><g clip-path="url(#bja)"><path d="M11.016 10.484c-.282-.28-.797-.28-1.079 0-.28.282-.28.797 0 1.079l3 3c.141.14.329.187.563.187a.753.753 0 0 0 .516-.234c.28-.282.28-.75 0-1.079l-3-2.953Zm-3.75.75c-.282-.28-.797-.28-1.079 0-.28.282-.28.797 0 1.079l6 6c.141.14.329.234.516.234a.776.776 0 0 0 .563-.235c.28-.28.28-.796 0-1.078l-6-6Zm-.75 3.75c-.282-.28-.797-.28-1.079 0-.28.282-.28.797 0 1.079l3 3c.141.14.329.234.516.234a.776.776 0 0 0 .563-.235c.28-.28.28-.796 0-1.078l-3-3Zm11.296-8.296C16.22 5.093 14.11 4.203 11.954 4.25c-2.156.047-4.172.938-5.765 2.484-.282.282-.282.797 0 1.079.28.28.796.28 1.078 0A6.525 6.525 0 0 1 12 5.796c1.828 0 3.469.656 4.781 1.922 1.266 1.312 1.969 3 1.969 4.781-.047 1.781-.75 3.469-2.063 4.734-.28.282-.28.797 0 1.078.141.141.329.235.563.235a.753.753 0 0 0 .516-.235c1.547-1.593 2.437-3.609 2.484-5.765 0-2.203-.844-4.313-2.438-5.86ZM12 .5C5.344.5 0 5.89 0 12.5c0 6.656 5.344 12 12 12 6.61 0 12-5.344 12-12 0-6.61-5.39-12-12-12ZM12 23C6.187 23 1.5 18.312 1.5 12.5 1.5 6.734 6.188 2 12 2c5.766 0 10.5 4.734 10.5 10.5C22.5 18.313 17.766 23 12 23Z"/></g><defs><clipPath id="bja"><path transform="translate(0 .5)" d="M0 0h24v24H0z"/></clipPath></defs></svg><view id="list-icon-7" viewBox="1632 1060 24 25"/><svg width="24" height="25" viewBox="0 0 24 25" x="1632" y="1060" xmlns="http://www.w3.org/2000/svg"><g clip-path="url(#bka)"><path d="M10.969.734C11.297.594 11.625.5 12 .5c.328 0 .656.094.984.234l10.22 4.594c.468.188.796.656.796 1.172 0 .563-.328 1.031-.797 1.219l-10.219 4.593c-.328.141-.656.188-.984.188-.375 0-.703-.047-1.031-.188L.75 7.72C.281 7.53 0 7.062 0 6.5c0-.516.281-.984.75-1.172L10.969.734ZM12 2a.936.936 0 0 0-.422.094L1.734 6.5l9.844 4.453c.094.047.235.047.422.047.14 0 .281 0 .375-.047L22.219 6.5l-9.844-4.406A.883.883 0 0 0 12 2Zm-8.344 8.813c.188.374 0 .843-.375 1.03l-1.547.657 9.844 4.453c.094.047.235.047.422.047.14 0 .281 0 .375-.047l9.844-4.453-1.547-.656c-.375-.188-.563-.656-.375-1.031a.777.777 0 0 1 .984-.376l1.922.891c.469.188.797.656.797 1.172 0 .563-.328 1.031-.797 1.219l-10.219 4.594c-.328.14-.656.187-.984.187-.375 0-.703-.047-1.031-.188L.75 13.72C.281 13.53 0 13.063 0 12.5c0-.516.281-.984.75-1.172l1.922-.89c.375-.141.797 0 .984.374ZM1.734 18.5l9.844 4.453c.094.047.235.047.422.047.14 0 .281 0 .375-.047l9.844-4.453-1.547-.656c-.375-.188-.563-.657-.375-1.032a.777.777 0 0 1 .984-.375l1.922.891c.469.188.797.656.797 1.172 0 .563-.328 1.031-.797 1.219l-10.219 4.593c-.328.141-.656.188-.984.188-.375 0-.703-.047-1.031-.188L.75 19.72C.281 19.53 0 19.062 0 18.5c0-.516.281-.984.75-1.172l1.922-.89c.375-.141.797 0 .984.375.188.375 0 .843-.375 1.03l-1.547.657Z"/></g><defs><clipPath id="bka"><path transform="translate(0 .5)" d="M0 0h24v24H0z"/></clipPath></defs></svg><view id="list-icon-8" viewBox="1656 1060 24 25"/><svg width="24" height="25" viewBox="0 0 24 25" x="1656" y="1060" xmlns="http://www.w3.org/2000/svg"><g clip-path="url(#bla)"><path d="M11.25 18.125c-.656 0-1.125.516-1.125 1.172 0 .61.469 1.078 1.125 1.078.61 0 1.125-.469 1.125-1.078 0-.656-.516-1.172-1.125-1.172Zm3.75 3.75c-.656 0-1.125.516-1.125 1.172 0 .61.469 1.078 1.125 1.078.61 0 1.125-.469 1.125-1.078 0-.656-.516-1.172-1.125-1.172Zm-7.5 0c-.656 0-1.125.516-1.125 1.172 0 .61.469 1.078 1.125 1.078.61 0 1.125-.469 1.125-1.078 0-.656-.516-1.172-1.125-1.172ZM5.766 9.5l-.797-3.984 3.984.796c.281.047.61-.046.75-.328L12 2.61l2.25 3.375c.14.282.469.375.797.329l4.031-1.032c.094 0 .235-.093.328-.187.188-.188.282-.422.188-.703a.74.74 0 0 0-.89-.563l-3.517.89L12.61.876C12.47.641 12.234.5 12 .5a.748.748 0 0 0-.656.375L8.766 4.719l-4.594-.89H3.89c-.094.046-.188.046-.282.14 0 0-.046 0-.046.047-.047.046-.141.093-.141.14-.094.094-.094.188-.14.282v.28l.937 4.595-3.89 2.578A.683.683 0 0 0 0 12.5c0 .281.094.516.328.656l3.844 2.578-.89 3.516a.74.74 0 0 0 .562.89c.281.047.515 0 .703-.187.094-.094.187-.234.187-.328l1.032-4.031a.67.67 0 0 0-.329-.797L2.063 12.5l3.376-2.25c.28-.14.375-.469.328-.75ZM22.5 9.125c.61 0 1.125-.469 1.125-1.078 0-.656-.516-1.172-1.125-1.172-.656 0-1.125.516-1.125 1.172 0 .61.469 1.078 1.125 1.078Zm-3.75 9c-.656 0-1.125.516-1.125 1.172 0 .61.469 1.078 1.125 1.078.61 0 1.125-.469 1.125-1.078 0-.656-.516-1.172-1.125-1.172Zm3.75 3.75c-.656 0-1.125.516-1.125 1.172 0 .61.469 1.078 1.125 1.078.61 0 1.125-.469 1.125-1.078 0-.656-.516-1.172-1.125-1.172Zm-7.5-7.5c-.656 0-1.125.516-1.125 1.172 0 .61.469 1.078 1.125 1.078.61 0 1.125-.469 1.125-1.078 0-.656-.516-1.172-1.125-1.172Zm7.5 0c-.656 0-1.125.516-1.125 1.172 0 .61.469 1.078 1.125 1.078.61 0 1.125-.469 1.125-1.078 0-.656-.516-1.172-1.125-1.172Zm-3.75-3.75c-.656 0-1.125.516-1.125 1.172 0 .61.469 1.078 1.125 1.078.61 0 1.125-.469 1.125-1.078 0-.656-.516-1.172-1.125-1.172Zm-9.14-.469a3.141 3.141 0 0 1 4.5 0c.328.281.796.281 1.078 0 .28-.328.28-.797 0-1.078-1.829-1.828-4.829-1.828-6.657 0-1.828 1.828-1.828 4.828 0 6.656.14.141.328.235.516.235.187 0 .375-.094.562-.235.282-.28.282-.796 0-1.078-1.218-1.219-1.218-3.234 0-4.5Z"/></g><defs><clipPath id="bla"><path transform="translate(0 .5)" d="M0 0h24v24H0z"/></clipPath></defs></svg><view id="load" viewBox="512 1024 512 512"/><svg width="512" height="512" viewBox="0 0 26.349 26.35" xml:space="preserve" x="512" y="1024" xmlns="http://www.w3.org/2000/svg"><circle cx="13.792" cy="3.082" r="3.082"/><circle cx="13.792" cy="24.501" r="1.849"/><circle cx="6.219" cy="6.218" r="2.774"/><circle cx="21.365" cy="21.363" r="1.541"/><circle cx="3.082" cy="13.792" r="2.465"/><circle cx="24.501" cy="13.791" r="1.232"/><path d="M4.694 19.84a2.155 2.155 0 0 0 0 3.05 2.155 2.155 0 0 0 3.05 0 2.155 2.155 0 0 0 0-3.05 2.146 2.146 0 0 0-3.05 0z"/><circle cx="21.364" cy="6.218" r=".924"/></svg><view id="logo-small" viewBox="1536 1024 35 36"/><svg width="35" height="36" viewBox="0 0 35 36" x="1536" y="1024" xmlns="http://www.w3.org/2000/svg"><path d="M0 .5h35v35H0z"/><path fill-rule="evenodd" clip-rule="evenodd" d="M7.778 32.55a17.5 17.5 0 1 0 19.445-29.1 17.5 17.5 0 0 0-19.445 29.1Zm.81-27.888A16.042 16.042 0 0 1 17.5 1.958 16.061 16.061 0 0 1 33.542 18 16.042 16.042 0 1 1 8.588 4.662ZM4.94 17.922l-.06.059-.02-.059h.08Zm5.753 0H4.941l7.931-7.622 4.336-4.161c.584-.603 1.03-.564 1.614 0l.035.034c1.168 1.149 1.751 1.723 1.959 2.41.206.686.038 1.486-.3 3.084l-.002.014-.002.008c-.408 1.942-.815 3.883-1.242 5.825a1.94 1.94 0 0 1-.137.389h-4.88l.113-.542c.172-.827.34-1.635.548-2.705-.345.325-.672.646-.99.957-.651.638-1.26 1.236-1.888 1.745-.37.335-.843.534-1.342.564Zm11.861 1.284h-3.13l-.059-.136.42 1.644c.431 1.689.85 3.333 1.292 4.967a1.245 1.245 0 0 1-.39 1.458 56.894 56.894 0 0 0-2.02 1.933l-.002.002c-.221.22-.436.432-.641.632-.797.777-1.03.7-1.303-.37l-.456-1.797a395.94 395.94 0 0 1-1.897-7.672c-.175-.661-.428-.817-1.05-.817H3.772l.661-.992H2.255a14.72 14.72 0 0 0 7.778 12.99A15.088 15.088 0 0 0 32.53 18.116a3.228 3.228 0 0 0-3.5 1.089c-.428.524-.93.982-1.433 1.441-.318.291-.637.583-.939.892-.486.525-.68.642-1.303 0a61.245 61.245 0 0 0-1.944-1.945 1.44 1.44 0 0 0-.856-.388Zm1.098-2.412c.71-.79 1.45-1.614 2.208-2.41a.914.914 0 0 1 .836 0c.78.767 1.543 1.562 2.338 2.391.353.37.713.745 1.084 1.128l-7.486.02c.332-.364.672-.743 1.02-1.13Z"/></svg><view id="meatball" viewBox="1704 1060 24 24"/><svg width="24" height="24" viewBox="0 0 24 24" x="1704" y="1060" xmlns="http://www.w3.org/2000/svg"><path d="M15.299 15.92h-.77l.39-.67a1.003 1.003 0 0 0-1.74-1l-.38.67-.38-.67a1.004 1.004 0 0 0-1.74 1l.39.67h-.77a1 1 0 0 0 0 2h.77l-.39.66a1.003 1.003 0 1 0 1.74 1l.38-.66.38.66a1.003 1.003 0 1 0 1.74-1l-.39-.66h.77a1 1 0 1 0 0-2Zm3.92-7.79A7 7 0 0 0 5.859 10a4 4 0 0 0-3.06 3.92 4 4 0 0 0 3.34 3.93h.16a1.003 1.003 0 0 0 .16-2 2 2 0 0 1-1.66-2 2 2 0 0 1 2-2 1 1 0 0 0 1-1 5 5 0 0 1 9.73-1.61 1 1 0 0 0 .78.66 3 3 0 0 1 .62 5.72 1 1 0 1 0 .74 1.85 5 5 0 0 0-.45-9.41v.07Z"/></svg><view id="menu-back" viewBox="1728 1060 24 24"/><svg width="24" height="24" viewBox="0 0 24 24" x="1728" y="1060" xmlns="http://www.w3.org/2000/svg"><path fill-rule="evenodd" clip-rule="evenodd" d="M16.67 4.293a1 1 0 0 0-1.414 0l-6.963 6.963a1 1 0 0 0 0 1.414l6.963 6.963a1 1 0 1 0 1.415-1.414l-6.257-6.256 6.257-6.256a1 1 0 0 0 0-1.414Z"/></svg><view id="menu-bar" viewBox="1024 1024 512 512"/><svg viewBox="0 0 512 512" width="512" height="512" x="1024" y="1024" xmlns="http://www.w3.org/2000/svg"><path d="M0 102.4a25.65 25.65 0 0 1 25.6-25.6h332.8a25.6 25.6 0 1 1 0 51.2H25.6A25.65 25.65 0 0 1 0 102.4Zm486.4 128H25.6a25.6 25.6 0 0 0 0 51.2h460.8a25.6 25.6 0 1 0 0-51.2ZM256 384H25.6a25.6 25.6 0 0 0 0 51.2H256a25.6 25.6 0 1 0 0-51.2Z"/></svg><view id="minus" viewBox="1984 1060 16 16"/><svg width="16" height="16" viewBox="0 0 16 16" x="1984" y="1060" xmlns="http://www.w3.org/2000/svg"><path d="M12.667 7.833H3.334a.667.667 0 0 0 0 1.333h9.333a.667.667 0 1 0 0-1.333Z"/></svg><view id="moon" viewBox="1752 1060 24 24"/><svg width="24" height="24" viewBox="0 0 24 24" x="1752" y="1060" xmlns="http://www.w3.org/2000/svg"><path d="M22.239 13a1 1 0 0 0-1.05-.14 8.052 8.052 0 0 1-3.37.73 8.15 8.15 0 0 1-8.14-8.1 8.59 8.59 0 0 1 .25-2 1 1 0 0 0-1.33-1.13 10.14 10.14 0 1 0 14 11.69 1 1 0 0 0-.36-1.05Zm-9.5 6.69a8.14 8.14 0 0 1-5.06-14.47v.27a10.15 10.15 0 0 0 10.14 10.14 9.798 9.798 0 0 0 2.1-.22 8.11 8.11 0 0 1-7.18 4.32v-.04Z"/></svg><view id="password-hidden" viewBox="2000 1060 16 16"/><svg width="16" height="16" viewBox="0 0 16 16" x="2000" y="1060" xmlns="http://www.w3.org/2000/svg"><path d="M7.293 4.053A4.62 4.62 0 0 1 7.999 4c2.12 0 4.114 1.527 5.274 4-.178.376-.378.741-.6 1.093a.668.668 0 0 0 .033.768.667.667 0 0 0 1.1-.068c.31-.488.58-1 .807-1.533a.666.666 0 0 0 0-.527c-1.347-3.126-3.88-5.066-6.614-5.066a5.18 5.18 0 0 0-.933.08.676.676 0 1 0 .227 1.333v-.027Zm-4.82-2.526a.67.67 0 0 0-.947.946l2.067 2.06a9.747 9.747 0 0 0-2.207 3.2.667.667 0 0 0 0 .534c1.347 3.126 3.88 5.066 6.613 5.066a6.173 6.173 0 0 0 3.367-1.026l2.16 2.166a.665.665 0 0 0 .947 0 .665.665 0 0 0 0-.946l-12-12Zm4.24 6.126 1.633 1.634a1.333 1.333 0 0 1-1.633-1.633ZM7.999 12c-2.12 0-4.113-1.527-5.266-4a8.06 8.06 0 0 1 1.8-2.527l1.18 1.194a2.667 2.667 0 0 0 3.62 3.62l1.06 1.046A4.827 4.827 0 0 1 7.999 12Z"/></svg><view id="password-show" viewBox="2016 1060 16 16"/><svg width="16" height="16" viewBox="0 0 16 16" x="2016" y="1060" xmlns="http://www.w3.org/2000/svg"><path d="M14.612 7.733C13.266 4.606 10.732 2.667 8 2.667c-2.733 0-5.267 1.94-6.613 5.066a.667.667 0 0 0 0 .534c1.346 3.126 3.88 5.066 6.613 5.066 2.733 0 5.267-1.94 6.613-5.066a.667.667 0 0 0 0-.534ZM8 12c-2.113 0-4.113-1.527-5.267-4C3.886 5.527 5.886 4 8 4c2.113 0 4.113 1.527 5.267 4-1.154 2.473-3.154 4-5.267 4Zm0-6.667a2.667 2.667 0 1 0 0 5.334 2.667 2.667 0 0 0 0-5.334Zm0 4a1.333 1.333 0 1 1 0-2.666 1.333 1.333 0 0 1 0 2.666Z"/></svg><view id="plus" viewBox="2032 1060 16 16"/><svg width="16" height="16" viewBox="0 0 16 16" x="2032" y="1060" xmlns="http://www.w3.org/2000/svg"><path d="M12.667 7.834h-4v-4a.667.667 0 0 0-1.333 0v4h-4a.667.667 0 0 0 0 1.333h4v4a.667.667 0 1 0 1.333 0v-4h4a.667.667 0 1 0 0-1.333Z"/></svg><view id="search" viewBox="1776 1060 24 24"/><svg viewBox="0 0 24 24" width="24" height="24" x="1776" y="1060" xmlns="http://www.w3.org/2000/svg"><path d="m21.72 20.31-3.71-3.68A8.996 8.996 0 0 0 17 4.3a8.935 8.935 0 0 0-6.25-2.29 9.03 9.03 0 0 0-6.12 2.63A8.985 8.985 0 0 0 2 10.76c-.06 2.3.76 4.54 2.29 6.25a9.027 9.027 0 0 0 5.96 2.96 9.01 9.01 0 0 0 6.37-1.95l3.68 3.68c.09.09.2.17.33.22.12.05.25.08.38.08s.26-.03.38-.08.23-.13.33-.22c.18-.19.28-.44.28-.7s-.1-.51-.28-.69Zm-10.71-2.29a7.005 7.005 0 0 1-6.87-8.36c.27-1.36.94-2.61 1.92-3.58.98-.98 2.23-1.65 3.58-1.92 1.36-.27 2.77-.13 4.04.4A7.008 7.008 0 0 1 18 11.03a7.001 7.001 0 0 1-7 7Z"/></svg><view id="slider-next" viewBox="1536 0 512 512"/><svg width="512" height="512" viewBox="0 0 64 64" xml:space="preserve" x="1536" xmlns="http://www.w3.org/2000/svg"><path d="M55.856 32 24.539 63.317c-.011.011-.022.022-.022.033H8.644l30.767-30.767a.81.81 0 0 0 0-1.166L8.644.65h15.873c0 .011.011.022.022.033z"/></svg><view id="slider-prev" viewBox="1536 512 512 512"/><svg width="512" height="512" viewBox="0 0 64 64" xml:space="preserve" x="1536" y="512" xmlns="http://www.w3.org/2000/svg"><path d="m8.394 32 31.317 31.317c.011.011.022.022.022.033h15.873L24.839 32.583a.81.81 0 0 1 0-1.166L55.606.65H39.733c0 .011-.011.022-.022.033z"/></svg><view id="star" viewBox="1582 1085 12 12"/><svg width="12" height="12" viewBox="0 0 12 11" x="1582" y="1085" xmlns="http://www.w3.org/2000/svg"><path d="m4 3.5 2-3 1.5 3L12 4 9 7l.5 4L6 9.5 2.5 11 3 7 .5 4 4 3.5Z"/></svg><view id="sun" viewBox="1800 1060 24 24"/><svg width="24" height="24" viewBox="0 0 24 24" x="1800" y="1060" xmlns="http://www.w3.org/2000/svg"><path d="m6.04 17-.71.71a1 1 0 0 0 0 1.41 1 1 0 0 0 1.41 0l.71-.71A1 1 0 0 0 6.04 17Zm-.64-5a1 1 0 0 0-1-1h-1a1 1 0 0 0 0 2h1a1 1 0 0 0 1-1Zm7-7a1 1 0 0 0 1-1V3a1 1 0 0 0-2 0v1a1 1 0 0 0 1 1ZM6.04 7.05a1 1 0 0 0 1.41 0 1 1 0 0 0 0-1.41l-.71-.71a1 1 0 0 0-1.41 1.41l.71.71Zm12 .29a1 1 0 0 0 .7-.29l.71-.71a1 1 0 1 0-1.41-1.41l-.64.71a1 1 0 0 0 0 1.41 1 1 0 0 0 .66.29h-.02ZM21.4 11h-1a1 1 0 0 0 0 2h1a1 1 0 0 0 0-2Zm-9 8a1 1 0 0 0-1 1v1a1 1 0 1 0 2 0v-1a1 1 0 0 0-1-1Zm6.36-2a1 1 0 0 0-1.36 1.36l.71.71a1 1 0 0 0 1.41 0 1 1 0 0 0 0-1.41l-.76-.66ZM12.4 6.5a5.5 5.5 0 1 0 5.5 5.5 5.51 5.51 0 0 0-5.5-5.5Zm0 9a3.5 3.5 0 1 1 0-7 3.5 3.5 0 0 1 0 7Z"/></svg><view id="sun-low" viewBox="1824 1060 24 24"/><svg width="24" height="24" viewBox="0 0 24 24" x="1824" y="1060" xmlns="http://www.w3.org/2000/svg"><path d="M3.2 11a1 1 0 1 0 0 2.001A1 1 0 0 0 3.2 11Zm1.93 6.66a1 1 0 1 0 1.41 1.418 1 1 0 0 0-1.41-1.418ZM6.54 6.34a1 1 0 1 0-1.41-1.418A1 1 0 0 0 6.54 6.34ZM12.2 4a1 1 0 1 0 0-2 1 1 0 0 0 0 2Zm5.66 13.66a1 1 0 1 0 1.409 1.418 1 1 0 0 0-1.41-1.418ZM21.2 11a1 1 0 1 0 0 2.002 1 1 0 0 0 0-2.002Zm-3.34-6.07a1 1 0 1 0 1.409 1.418 1 1 0 0 0-1.41-1.418ZM12.2 20a1 1 0 1 0-.001 2 1 1 0 0 0 0-2Zm0-14a6 6 0 1 0 0 12 6 6 0 0 0 0-12Zm0 10a4 4 0 1 1 0-8 4 4 0 0 1 0 8Z"/></svg><view id="time" viewBox="1536 1085 16 16"/><svg width="16" height="16" viewBox="0 0 16 16" x="1536" y="1085" xmlns="http://www.w3.org/2000/svg"><path d="M7.5 3.5c0-.25.219-.5.5-.5.25 0 .5.25.5.5v4.25l2.75 1.844a.48.48 0 0 1 .156.687.48.48 0 0 1-.687.156l-3-2A.499.499 0 0 1 7.469 8L7.5 3.5ZM8 0c4.406 0 8 3.594 8 8 0 4.438-3.594 8-8 8-4.438 0-8-3.563-8-8 0-4.406 3.563-8 8-8ZM1 8c0 3.875 3.125 7 7 7 3.844 0 7-3.125 7-7 0-3.844-3.156-7-7-7-3.875 0-7 3.156-7 7Z"/></svg><view id="trash" viewBox="1848 1060 24 24"/><svg width="24" height="24" viewBox="0 0 24 24" x="1848" y="1060" xmlns="http://www.w3.org/2000/svg"><path d="M10 18a1 1 0 0 0 1-1v-6a1 1 0 0 0-2 0v6a1 1 0 0 0 1 1ZM20 6h-4V5a3 3 0 0 0-3-3h-2a3 3 0 0 0-3 3v1H4a1 1 0 0 0 0 2h1v11a3 3 0 0 0 3 3h8a3 3 0 0 0 3-3V8h1a1 1 0 1 0 0-2ZM10 5a1 1 0 0 1 1-1h2a1 1 0 0 1 1 1v1h-4V5Zm7 14a1 1 0 0 1-1 1H8a1 1 0 0 1-1-1V8h10v11Zm-3-1a1 1 0 0 0 1-1v-6a1 1 0 0 0-2 0v6a1 1 0 0 0 1 1Z"/></svg><view id="truck" viewBox="1552 1085 16 16"/><svg width="16" height="16" viewBox="0 0 16 16" x="1552" y="1085" xmlns="http://www.w3.org/2000/svg"><path d="M.666 8.333v3.333a.667.667 0 0 0 .667.667h.666a2 2 0 0 0 4 0h4a2 2 0 0 0 4 0h.667a.667.667 0 0 0 .667-.667v-8a2 2 0 0 0-2-2h-6a2 2 0 0 0-2 2V5H3.999a2 2 0 0 0-1.6.8L.8 7.933a.407.407 0 0 0-.046.094l-.04.073a.667.667 0 0 0-.047.233Zm10.667 4a.667.667 0 1 1 1.334 0 .667.667 0 0 1-1.334 0ZM6.666 3.667A.667.667 0 0 1 7.333 3h6a.667.667 0 0 1 .666.667V11h-.52a1.999 1.999 0 0 0-2.96 0H6.666V3.667Zm-1.333 4H2.666l.8-1.067a.667.667 0 0 1 .533-.267h1.334v1.333Zm-2 4.666a.667.667 0 1 1 1.333 0 .667.667 0 0 1-1.333 0ZM1.999 9h3.334v1.853A2 2 0 0 0 2.519 11H2V9Z"/></svg><view id="user-circle" viewBox="1872 1060 24 24"/><svg viewBox="0 0 24 24" width="24" height="24" x="1872" y="1060" xmlns="http://www.w3.org/2000/svg"><path d="M12 2.01a9.982 9.982 0 0 0-9.14 5.98c-.78 1.78-1.02 3.74-.71 5.65a9.964 9.964 0 0 0 2.5 5.12A10.01 10.01 0 0 0 12 21.98c1.38 0 2.75-.29 4.01-.84a9.97 9.97 0 0 0 3.34-2.38c1.31-1.43 2.18-3.21 2.5-5.12.32-1.91.07-3.88-.71-5.65A9.99 9.99 0 0 0 12 2.01Zm0 18c-2.07 0-4.06-.81-5.55-2.25A6.024 6.024 0 0 1 12 14.04c1.19 0 2.35.35 3.34 1.02.99.66 1.76 1.6 2.21 2.7A7.992 7.992 0 0 1 12 20.01Zm-2-10c0-.4.12-.78.34-1.11.22-.33.53-.59.9-.74a2.004 2.004 0 0 1 2.18.44 2.004 2.004 0 0 1 .44 2.18 2.014 2.014 0 0 1-1.85 1.24c-.53 0-1.04-.21-1.41-.59-.38-.38-.59-.88-.59-1.41Zm8.91 6A7.967 7.967 0 0 0 15 12.63c.51-.58.84-1.29.96-2.05.11-.76 0-1.54-.31-2.24-.32-.7-.83-1.3-1.48-1.71-.65-.42-1.4-.64-2.17-.64s-1.52.22-2.17.64a4.02 4.02 0 0 0-1.48 1.71c-.32.7-.42 1.48-.31 2.24.11.76.45 1.47.96 2.05a7.967 7.967 0 0 0-3.91 3.38 7.906 7.906 0 0 1-1.09-4c0-2.12.84-4.16 2.34-5.66S9.88 4.01 12 4.01s4.16.84 5.66 2.34S20 9.89 20 12.01c0 1.41-.38 2.79-1.09 4Z"/></svg><view id="youtube" viewBox="1896 1060 24 24"/><svg width="24" height="24" viewBox="0 0 24 24" x="1896" y="1060" xmlns="http://www.w3.org/2000/svg"><path d="M23 9.71a8.5 8.5 0 0 0-.91-4.13 2.92 2.92 0 0 0-1.72-1A78.363 78.363 0 0 0 12 4.27a78.451 78.451 0 0 0-8.34.3 2.87 2.87 0 0 0-1.461.74c-.9.83-1 2.25-1.1 3.45a48.29 48.29 0 0 0 0 6.48 9.55 9.55 0 0 0 .3 2c.12.505.365.972.71 1.36a2.86 2.86 0 0 0 1.49.78c2.156.266 4.328.376 6.5.33 3.5.05 6.57 0 10.2-.28a2.881 2.881 0 0 0 1.53-.78c.28-.28.49-.623.61-1a10.58 10.58 0 0 0 .52-3.4c.04-.56.04-3.94.04-4.54ZM9.74 14.85V8.66l5.919 3.11c-1.66.92-3.85 1.96-5.92 3.08Z"/></svg></svg>